<svg id="Layer_1" data-name="Layer 1" xmlns="http://www.w3.org/2000/svg" width="100" height="100" viewBox="0 0 100 100">
  <defs>
    <style>
      .cls-1 {
        fill: #5c1dae;
      }

      .cls-2 {
        fill: #fff;
      }
    </style>
  </defs>
  <circle class="cls-1" cx="50" cy="50" r="50"/>
  <path class="cls-2" d="M74.22,21.5H25.77a9.17,9.17,0,0,0-9.14,9.13V68.42a9.17,9.17,0,0,0,9.14,9.13h1.89l3.49,5,6,8.58a3.11,3.11,0,0,0,5.58-1L45.1,80l.57-2.41H74.22a9.18,9.18,0,0,0,9.15-9.13V30.63A9.18,9.18,0,0,0,74.22,21.5Zm0,36.36H25.75a1.52,1.52,0,0,1,0-3H74.23a1.52,1.52,0,1,1,0,3Zm0-7.58H25.75a1.52,1.52,0,0,1,0-3H74.23a1.52,1.52,0,1,1,0,3Zm0-7.57H25.75a1.52,1.52,0,0,1,0-3H74.23a1.52,1.52,0,1,1,0,3Z"/>
</svg>
