<svg id="Layer_1" data-name="Layer 1" xmlns="http://www.w3.org/2000/svg" width="252.21" height="41.71" viewBox="0 0 252.21 41.71">
  <defs>
    <style>
      .cls-1 {
        fill: #5c1dae;
      }
    </style>
  </defs>
  <g>
    <path class="cls-1" d="M30.67,9.71a4.53,4.53,0,0,1-.76,2.64,6.23,6.23,0,0,1-1.76,1.75,18.18,18.18,0,0,0-3.25-1.69,10.52,10.52,0,0,0-4-.71A8.63,8.63,0,0,0,14,14.48c-1.6,1.86-2.4,4.46-2.4,7.82s.86,6.1,2.6,7.87a9.65,9.65,0,0,0,7.23,2.67,11.31,11.31,0,0,0,4.07-.65,27.24,27.24,0,0,0,3.19-1.46,5.89,5.89,0,0,1,1.55,2,6,6,0,0,1,.56,2.66,4.58,4.58,0,0,1-.7,2.46,5.27,5.27,0,0,1-2.4,1.88,18.67,18.67,0,0,1-3,.93,19.75,19.75,0,0,1-4.68.47A24.16,24.16,0,0,1,12.58,40a16.6,16.6,0,0,1-6-3.4,15.59,15.59,0,0,1-4-5.82A22.2,22.2,0,0,1,1.05,22.3a21.37,21.37,0,0,1,1.43-8.08A17.09,17.09,0,0,1,6.41,8.31a16.46,16.46,0,0,1,5.82-3.63,20.48,20.48,0,0,1,7.14-1.23c3.59,0,6.37.58,8.34,1.76S30.67,7.88,30.67,9.71Z"/>
    <path class="cls-1" d="M61.23,25.81a17.49,17.49,0,0,1-1.08,6.32,13.18,13.18,0,0,1-3.1,4.78,13.91,13.91,0,0,1-4.83,3,18,18,0,0,1-6.33,1,18.42,18.42,0,0,1-6.32-1,13.44,13.44,0,0,1-4.83-3,12.93,12.93,0,0,1-3.1-4.77,17.67,17.67,0,0,1-1.08-6.38,16.89,16.89,0,0,1,1.11-6.26,13.25,13.25,0,0,1,3.13-4.77,13.79,13.79,0,0,1,4.83-3,17.76,17.76,0,0,1,6.26-1,17.37,17.37,0,0,1,6.27,1.08A14.15,14.15,0,0,1,57,14.84a13.38,13.38,0,0,1,3.13,4.77A16.72,16.72,0,0,1,61.23,25.81ZM45.89,18.5a4.38,4.38,0,0,0-3.8,1.9,9.26,9.26,0,0,0-1.35,5.41,9.31,9.31,0,0,0,1.35,5.53,4.82,4.82,0,0,0,7.61,0A9.4,9.4,0,0,0,51,25.81,9.26,9.26,0,0,0,49.7,20.4,4.39,4.39,0,0,0,45.89,18.5Z"/>
    <path class="cls-1" d="M91.15,40a16.83,16.83,0,0,1-1.85.35,17.6,17.6,0,0,1-2.6.18,7.17,7.17,0,0,1-4.22-1q-1.29-1-1.29-3.72V22a3.2,3.2,0,0,0-1.08-2.67,4.5,4.5,0,0,0-2.84-.84,7.73,7.73,0,0,0-2.19.29,11.15,11.15,0,0,0-2,.76V40a16.57,16.57,0,0,1-1.84.35,17.6,17.6,0,0,1-2.6.18,7.17,7.17,0,0,1-4.22-1q-1.29-1-1.29-3.72V18.2a4.48,4.48,0,0,1,.68-2.57,6.93,6.93,0,0,1,1.84-1.82,16,16,0,0,1,5-2.25,24.46,24.46,0,0,1,6.7-.85q6.61,0,10.18,2.9a9.85,9.85,0,0,1,3.58,8.1Z"/>
    <path class="cls-1" d="M116.2,11a6.38,6.38,0,0,1,3.46.88,3.31,3.31,0,0,1,1.4,3,13.5,13.5,0,0,1-.41,2.73c-.27,1.19-.64,2.53-1.11,4s-1,3.09-1.58,4.77-1.19,3.3-1.82,4.88-1.25,3.07-1.87,4.45-1.17,2.51-1.64,3.37a6.58,6.58,0,0,1-2.4,1.05,13.9,13.9,0,0,1-3.57.41,12,12,0,0,1-4-.58,3.85,3.85,0,0,1-2.31-1.87q-.54-1-1.26-2.76c-.49-1.17-1-2.49-1.55-4s-1.12-3-1.7-4.68-1.14-3.28-1.67-4.92-1-3.22-1.43-4.74-.79-2.87-1.06-4A7.68,7.68,0,0,1,96.94,11a6.08,6.08,0,0,1,3.37.85,5.28,5.28,0,0,1,2,3.19l2.28,9q.65,2.63,1.23,4.77c.39,1.42.68,2.53.88,3.31H107q1.11-4.33,2.34-9.6t2.23-10.37a9.46,9.46,0,0,1,2.25-.82A11,11,0,0,1,116.2,11Z"/>
    <path class="cls-1" d="M151.74,25.81a17.28,17.28,0,0,1-1.09,6.32,13.05,13.05,0,0,1-3.1,4.78,13.82,13.82,0,0,1-4.83,3,17.94,17.94,0,0,1-6.32,1,18.42,18.42,0,0,1-6.32-1,13.27,13.27,0,0,1-4.83-3,13.08,13.08,0,0,1-3.11-4.77,17.67,17.67,0,0,1-1.08-6.38,16.89,16.89,0,0,1,1.11-6.26,13.38,13.38,0,0,1,3.13-4.77,13.79,13.79,0,0,1,4.83-3,17.85,17.85,0,0,1,6.27-1,17.31,17.31,0,0,1,6.26,1.08,14,14,0,0,1,4.83,3.05,13.4,13.4,0,0,1,3.14,4.77A16.72,16.72,0,0,1,151.74,25.81ZM136.4,18.5a4.39,4.39,0,0,0-3.81,1.9,9.34,9.34,0,0,0-1.34,5.41,9.39,9.39,0,0,0,1.34,5.53,4.82,4.82,0,0,0,7.61,0,9.39,9.39,0,0,0,1.35-5.51,9.26,9.26,0,0,0-1.35-5.41A4.36,4.36,0,0,0,136.4,18.5Z"/>
    <path class="cls-1" d="M162.68,40.33a20.6,20.6,0,0,1-2.75.18c-2.07,0-3.5-.35-4.3-1.06s-1.2-2-1.2-3.8V4.44l2-.32a18.73,18.73,0,0,1,2.69-.2,7,7,0,0,1,4.22,1c.86.67,1.28,2,1.28,3.87v9.48h11.25V4.44l2-.32a18.87,18.87,0,0,1,2.7-.2,6.68,6.68,0,0,1,4.21,1c.86.7,1.29,2,1.29,3.92V40a16.24,16.24,0,0,1-2,.35,20.82,20.82,0,0,1-2.75.18c-2.07,0-3.5-.35-4.3-1.06s-1.2-2-1.2-3.8V26.34H164.67V40A15.88,15.88,0,0,1,162.68,40.33Z"/>
    <path class="cls-1" d="M190.08,11.7c.43-.11,1-.23,1.85-.35a19,19,0,0,1,2.6-.17,7.2,7.2,0,0,1,4.22,1c.85.65,1.28,1.89,1.28,3.72V28.74a4.3,4.3,0,0,0,1.18,3.42,5,5,0,0,0,3.39,1,8.32,8.32,0,0,0,2.2-.24,7.65,7.65,0,0,0,1.31-.46V11.7c.43-.11,1-.23,1.85-.35a19.14,19.14,0,0,1,2.6-.17,7.2,7.2,0,0,1,4.22,1q1.29,1,1.29,3.72V34a4.78,4.78,0,0,1-2.46,4.39,16.19,16.19,0,0,1-4.89,2,26.67,26.67,0,0,1-6.18.67,22.65,22.65,0,0,1-5.82-.7,13.14,13.14,0,0,1-4.6-2.16,9.68,9.68,0,0,1-3-3.78,13.28,13.28,0,0,1-1.06-5.59Z"/>
    <path class="cls-1" d="M237,10.71a15.27,15.27,0,0,1,5.42,1,12.67,12.67,0,0,1,4.42,2.84,13.32,13.32,0,0,1,2.95,4.69,18,18,0,0,1,1.09,6.5,17.2,17.2,0,0,1-1.15,6.52A13,13,0,0,1,246.57,37a13.61,13.61,0,0,1-5,3A19.92,19.92,0,0,1,235,41a20.87,20.87,0,0,1-6.56-.9,17.33,17.33,0,0,1-4.56-2.26,5.5,5.5,0,0,1-2.58-4.68V1.87a14.74,14.74,0,0,1,1.85-.35,17.5,17.5,0,0,1,2.6-.18,7.11,7.11,0,0,1,4.22,1c.85.64,1.28,1.88,1.28,3.72v5.79A17.92,17.92,0,0,1,233.9,11,14.61,14.61,0,0,1,237,10.71Zm-1.87,7.79a7.24,7.24,0,0,0-2.14.29,8.37,8.37,0,0,0-1.78.76v12.7a7.35,7.35,0,0,0,1.55.62,7.85,7.85,0,0,0,2.13.26,5.24,5.24,0,0,0,4.22-1.87,8.47,8.47,0,0,0,1.58-5.56q0-3.75-1.49-5.48A5.1,5.1,0,0,0,235.16,18.5Z"/>
  </g>
</svg>
